<svg width="944" height="226" viewBox="0 0 944 226" fill="none" xmlns="http://www.w3.org/2000/svg">
<g clip-path="url(#clip0_20_1133)">
<path d="M116.794 3.13603C113.874 4.90858 110.193 8.86272 108.035 12.8169C104.734 18.4072 104.226 20.7252 104.226 28.4971C104.353 34.7692 105.369 39.9505 107.527 45.6772C110.447 53.5855 126.189 81.8099 127.585 81.8099C128.601 81.8099 134.567 71.1746 141.296 56.9942C150.817 37.0872 152.975 18.5436 147.008 9.68082C145.612 7.77192 142.184 5.31763 139.391 4.22683C134.821 2.45428 133.933 2.59063 129.362 4.90858C122.38 8.59002 118.699 15.1348 118.699 23.7249C118.699 35.5873 124.792 42.6775 133.044 40.3596C141.677 38.0416 140.407 18.8163 131.648 19.2253C128.601 19.498 128.601 19.498 131.14 20.0434C132.663 20.3161 134.948 22.225 136.091 23.9976C138.884 28.7698 136.472 37.7689 132.155 38.9961C122.38 41.5867 116.16 24.2703 122.888 13.4986C130.505 1.09078 144.469 2.86333 148.024 16.6347C151.071 29.1789 145.104 48.8133 130.378 74.1743L127.331 79.3556L119.206 65.3116C109.05 47.7225 106.004 39.1324 106.004 28.4971C106.004 15.9529 110.32 8.31732 120.73 2.72698C123.396 1.36348 124.792 0.136328 123.777 0.136328C122.761 -2.22921e-05 119.587 1.36348 116.794 3.13603Z" fill="#F5F5F5"/>
<path d="M76.1702 19.9071C71.3461 20.9979 61.5709 24.952 54.5886 28.6335C42.4014 35.0419 26.0248 47.5861 26.0248 50.7222C26.0248 51.5403 29.0716 49.3587 32.7532 46.0863C42.5283 37.0872 50.7801 31.4968 59.1588 27.8154C63.2213 26.0428 66.9028 24.543 67.2837 24.543C67.6645 24.543 67.9184 26.3155 67.9184 28.3608C67.9184 30.8151 66.522 33.5421 64.1099 36.1327C59.5397 40.7686 56.4929 47.4498 56.4929 52.7674C56.4929 54.949 57.8893 61.3575 59.6666 66.8115C61.4439 72.2655 62.8404 79.6284 62.8404 83.1735C62.8404 91.0818 59.9205 94.2178 50.1454 97.3538C41.7666 99.9445 39.2276 101.717 27.1674 113.034C19.5503 120.261 17.9 121.215 16.8844 119.443C15.6149 116.852 17.1383 109.762 21.4546 99.2627C26.0248 88.0821 26.4057 83.5825 23.3588 80.3101C21.3276 78.1285 19.8042 77.7195 16.7574 78.4012C7.1092 80.4465 3.17374 88.2184 0.634731 109.898C-1.90428 131.169 3.04679 156.53 13.4567 175.482C20.439 188.163 38.7198 206.979 50.7801 213.66C97.4978 239.567 154.118 222.796 180.143 175.21C188.521 159.666 192.33 145.894 193.218 127.487C194.742 95.854 185.982 71.0383 165.416 48.5406C160.084 42.5412 155.26 37.9053 155.006 38.3143C154.626 38.7234 159.069 44.1774 164.782 50.4495C176.334 63.4027 183.697 76.6287 188.648 94.0814C192.203 106.489 192.711 130.487 189.918 144.531C188.14 153.121 187.76 153.803 174.811 167.438L161.481 181.482L162.243 188.845L162.877 196.208L154.499 203.161C137.614 217.069 118.572 224.023 97.117 224.023C77.4397 223.887 61.6978 219.114 46.083 208.343C32.4993 199.071 31.2298 197.298 31.9915 188.981C32.7532 181.073 30.9759 176.028 25.517 170.574C21.3276 166.347 21.4546 162.802 26.0248 156.257C28.183 153.257 29.8333 149.576 29.8333 147.94C29.8333 140.168 20.6929 135.395 8.6326 136.895L1.90423 137.713V122.988C1.90423 104.308 5.33189 88.0821 10.283 83.4462C12.695 81.1282 14.8532 80.4465 18.2808 80.7192C22.3432 81.1282 22.851 81.5373 23.2319 85.3551C23.4858 88.0821 22.0893 93.2633 19.6773 98.99C15.361 109.216 13.8376 118.215 15.7418 121.215C17.5191 124.215 21.7085 121.76 31.2298 112.08C39.9893 103.353 44.4326 100.49 51.4149 98.8537C59.4127 97.0811 62.7134 94.4905 64.1099 88.7638C65.6333 82.7644 64.3638 74.038 60.3014 62.9937C58.9049 59.0395 57.7624 54.6763 57.7624 53.0401C57.7624 49.495 62.4595 39.5415 64.7447 38.7234C67.2837 37.6326 70.7113 29.0425 69.8227 26.0428C69.1879 23.7249 70.0766 23.1795 76.0432 21.816C79.7248 20.9979 86.4532 19.7708 90.8964 19.2254L99.0213 18.1345L92.039 17.9982C88.2305 17.9982 81.1213 18.8163 76.1702 19.9071ZM19.8042 139.213C24.3744 140.849 28.5638 145.076 28.5638 147.94C28.5638 148.894 26.9135 151.894 24.7553 154.757C19.9312 161.302 19.6773 167.301 24.2475 171.937C28.5638 176.164 31.1028 181.618 31.1028 186.39C31.1028 192.935 29.4525 194.026 25.7709 189.935C16.2496 178.891 6.22055 158.166 3.80849 144.258C3.04679 139.759 3.17374 139.213 5.96665 138.668C11.4255 137.577 15.4879 137.713 19.8042 139.213ZM181.793 168.665C177.477 177.8 166.94 192.526 165.162 191.844C164.401 191.572 163.639 189.117 163.385 186.527C163.004 182.164 163.639 181.073 169.098 176.3C172.399 173.437 177.096 168.801 179.508 166.074C181.92 163.211 184.205 161.166 184.459 161.438C184.713 161.711 183.443 164.983 181.793 168.665Z" fill="#F5F5F5"/>
<path d="M101.687 198.935C93.6894 206.979 91.5312 208.479 86.3262 209.297C80.6135 210.252 72.7425 215.569 74.3929 217.478C74.9007 217.887 76.678 216.796 78.3284 215.024C80.2326 212.979 83.6603 211.342 87.5957 210.797C92.8007 209.843 94.9589 208.479 102.957 200.298C110.701 192.526 112.986 190.89 116.54 190.89C121.238 190.89 124.03 193.481 126.316 199.616C127.585 203.298 127.966 203.434 133.806 202.889C137.233 202.48 140.915 202.752 142.057 203.434C143.327 204.252 144.089 204.116 144.089 203.298C144.089 201.389 139.772 200.434 133.298 200.843C129.235 201.116 128.22 200.571 127.839 198.389C126.823 192.935 122.507 189.526 116.54 189.526C111.335 189.526 110.193 190.208 101.687 198.935Z" fill="#F5F5F5"/>
<path d="M44.75 83.8552C49.1039 85.5461 53.6773 87.0443 56.4347 91.4557C59.2075 95.8916 59.8099 101.669 60.6499 106.826C61.2277 110.373 61.7107 113.927 62.1746 117.494C62.6503 121.152 62.7672 125.553 64.3014 128.923C67.0923 135.055 71.8767 122.321 72.4499 120.675C74.1113 115.905 74.8183 110.926 76.1398 106.065C76.7247 103.915 77.5512 101.544 79.4454 100.421C82.3069 98.7249 84.7773 100.981 85.5952 103.954C86.4792 107.167 87.2936 110.41 87.927 113.694C89.0143 119.332 89.5882 125.196 91.6554 130.542C91.8261 130.983 92.3895 133.176 93.4875 132.921C95.0876 132.549 96.9754 129.253 97.4849 128.388C99.5127 124.946 100.535 122.46 101.674 118.564C102.666 115.176 102.899 111.606 103.917 108.233C105.07 104.41 107.066 100.584 109.951 98.0287C110.389 97.6407 110.83 97.2827 111.399 97.2827" stroke="#F5F5F5" stroke-width="2" stroke-linecap="round"/>
<path d="M100.926 123.671C105.617 123.986 107.567 129.46 109.111 133.5C110.627 137.467 111.8 141.571 113.303 145.544C113.99 147.359 114.553 148.787 115.419 150.501C116.284 152.213 117.917 155.823 119.677 156.708C122.695 158.225 125.388 143.247 125.76 141.851C126.676 138.42 127.278 133.084 129.939 130.446C131.371 129.027 131.884 130.427 132.61 131.852C134.113 134.801 135.171 137.853 135.387 141.226C135.779 147.322 135.488 153.626 140.307 158.071C144.815 162.231 146.147 145.232 146.363 143.485C147.409 135.033 148.232 124.562 156.81 120.887C159.247 119.844 160.761 122.844 162.814 123.671" stroke="#F5F5F5" stroke-width="2" stroke-linecap="round"/>
<path d="M183.404 160.169C184.432 157.199 185.466 154.317 185.632 151.114C185.794 147.988 184.773 145.897 183.053 143.501C179.743 138.891 175.943 134.795 171.74 131.123C170.447 129.993 168.877 129.119 168.084 127.466C167.054 125.32 166.648 122.644 166.979 120.265C167.437 116.976 169.569 113.832 172.137 112.063C173.257 111.29 174.458 110.616 175.641 109.96C176.168 109.668 176.853 109.457 177.334 109.073C180.104 106.856 180.387 102.43 181.169 99.1519C181.766 96.6496 182.44 94.1121 183.496 91.7805C183.979 90.7155 184.599 90.0804 185.308 89.2239" stroke="#F5F5F5" stroke-width="2" stroke-linecap="round"/>
</g>
<path d="M240.407 94.456H249.031L265.005 149.238H262.751L279.117 100.826H284.311L300.481 148.846H298.325L316.651 94.456H325.177L303.421 156H295.385L281.175 114.252H282.645L267.945 156H259.909L240.407 94.456ZM362.351 156L361.371 145.71V125.62C361.371 121.406 360.472 118.384 358.676 116.555C356.879 114.693 354.184 113.762 350.591 113.762C348.565 113.762 346.72 114.056 345.054 114.644C343.42 115.232 342.114 116.147 341.134 117.388C340.186 118.597 339.713 120.165 339.713 122.092H331.187C331.187 118.695 332.02 115.967 333.686 113.909C335.352 111.818 337.638 110.316 340.546 109.401C343.486 108.454 346.834 107.98 350.591 107.98C354.184 107.98 357.369 108.584 360.146 109.793C362.922 111.002 365.095 112.929 366.663 115.575C368.231 118.188 369.015 121.602 369.015 125.816V156H362.351ZM346.377 157.176C342.522 157.176 339.337 156.49 336.822 155.118C334.306 153.746 332.428 151.966 331.187 149.777C329.945 147.588 329.325 145.285 329.325 142.868C329.325 139.699 330.109 137.119 331.677 135.126C333.277 133.133 335.45 131.68 338.194 130.765C340.938 129.818 344.025 129.344 347.455 129.344C349.905 129.344 352.355 129.589 354.805 130.079C357.287 130.569 359.705 131.239 362.057 132.088V136.89C360.097 136.106 357.875 135.485 355.393 135.028C352.943 134.571 350.689 134.342 348.631 134.342C345.495 134.342 342.849 134.995 340.693 136.302C338.537 137.576 337.459 139.765 337.459 142.868C337.459 145.155 338.275 147.115 339.909 148.748C341.575 150.381 344.221 151.198 347.847 151.198C350.395 151.198 352.681 150.61 354.707 149.434C356.765 148.225 358.382 146.723 359.558 144.926C360.766 143.129 361.371 141.333 361.371 139.536H363.233C363.233 142.672 362.547 145.579 361.175 148.258C359.835 150.937 357.908 153.093 355.393 154.726C352.877 156.359 349.872 157.176 346.377 157.176ZM420.639 156V128.462C420.639 123.987 419.561 120.589 417.405 118.27C415.282 115.918 412.375 114.742 408.683 114.742C405.874 114.742 403.44 115.51 401.382 117.045C399.324 118.58 397.74 120.785 396.629 123.66C395.519 126.502 394.963 129.899 394.963 133.852H392.023C392.023 128.397 392.742 123.742 394.179 119.887C395.617 116.032 397.707 113.092 400.451 111.067C403.228 109.009 406.593 107.98 410.545 107.98C414.237 107.98 417.389 108.813 420.002 110.479C422.648 112.112 424.674 114.464 426.078 117.535C427.483 120.606 428.185 124.248 428.185 128.462V156H420.639ZM387.319 156V109.156H393.885L394.963 119.936V156H387.319ZM463.222 157.176C459.433 157.176 455.954 156.163 452.785 154.138C449.616 152.08 447.085 149.205 445.19 145.514C443.295 141.79 442.348 137.413 442.348 132.382C442.348 127.384 443.279 123.056 445.141 119.397C447.003 115.738 449.469 112.929 452.54 110.969C455.643 108.976 459.041 107.98 462.732 107.98C466.162 107.98 469.167 108.813 471.748 110.479C474.361 112.145 476.387 114.546 477.824 117.682C479.261 120.818 479.98 124.607 479.98 129.05H477.04C477.04 125.947 476.419 123.333 475.178 121.21C473.969 119.087 472.385 117.486 470.425 116.408C468.465 115.297 466.358 114.742 464.104 114.742C461.556 114.742 459.22 115.461 457.097 116.898C455.006 118.303 453.324 120.328 452.05 122.974C450.809 125.587 450.188 128.723 450.188 132.382C450.188 136.106 450.809 139.307 452.05 141.986C453.324 144.665 455.006 146.723 457.097 148.16C459.22 149.597 461.556 150.316 464.104 150.316C466.227 150.316 468.269 149.761 470.229 148.65C472.222 147.539 473.855 145.922 475.129 143.799C476.403 141.643 477.04 139.046 477.04 136.008H479.98C479.98 140.549 479.229 144.403 477.726 147.572C476.256 150.708 474.247 153.093 471.699 154.726C469.184 156.359 466.358 157.176 463.222 157.176ZM478.314 156L477.04 145.024V89.164H484.684V156H478.314ZM520.824 157.176C516.773 157.176 513.147 156.147 509.946 154.089C506.777 151.998 504.262 149.107 502.4 145.416C500.57 141.725 499.656 137.478 499.656 132.676C499.656 127.547 500.57 123.137 502.4 119.446C504.229 115.755 506.728 112.929 509.897 110.969C513.098 108.976 516.74 107.98 520.824 107.98C524.384 107.98 527.422 108.699 529.938 110.136C532.453 111.573 534.478 113.517 536.014 115.967C537.549 118.417 538.611 121.194 539.199 124.297C539.819 127.368 539.999 130.553 539.738 133.852H505.83V129.148H534.691L532.437 130.618C532.535 128.691 532.42 126.763 532.094 124.836C531.8 122.909 531.228 121.145 530.379 119.544C529.529 117.911 528.337 116.604 526.802 115.624C525.266 114.644 523.306 114.154 520.922 114.154C517.916 114.154 515.401 114.922 513.376 116.457C511.35 117.992 509.831 120.018 508.819 122.533C507.806 125.016 507.3 127.711 507.3 130.618V133.754C507.3 137.021 507.79 139.944 508.77 142.525C509.782 145.106 511.285 147.147 513.278 148.65C515.27 150.153 517.786 150.904 520.824 150.904C523.862 150.904 526.361 150.169 528.321 148.699C530.281 147.229 531.473 145.057 531.898 142.182H539.836C539.346 145.285 538.235 147.964 536.504 150.218C534.772 152.439 532.567 154.154 529.889 155.363C527.21 156.572 524.188 157.176 520.824 157.176ZM554.896 156V109.058H562.54V156H554.896ZM560.188 134.832C560.188 128.887 560.759 123.954 561.903 120.034C563.046 116.081 564.712 113.141 566.901 111.214C569.122 109.254 571.817 108.274 574.986 108.274C576.031 108.274 576.978 108.356 577.828 108.519C578.71 108.65 579.592 108.862 580.474 109.156L579.984 116.702C579.069 116.408 578.073 116.163 576.995 115.967C575.917 115.738 574.953 115.624 574.104 115.624C571.327 115.624 569.089 116.424 567.391 118.025C565.692 119.593 564.451 121.814 563.667 124.689C562.915 127.564 562.54 130.945 562.54 134.832H560.188ZM605.036 94.456H613.66L629.634 149.238H627.38L643.746 100.826H648.94L665.11 148.846H662.954L681.28 94.456H689.806L668.05 156H660.014L645.804 114.252H647.274L632.574 156H624.538L605.036 94.456ZM714.926 157.176C710.712 157.176 706.955 156.245 703.656 154.383C700.389 152.521 697.808 149.761 695.914 146.102C694.019 142.443 693.072 137.935 693.072 132.578C693.072 127.188 694.019 122.68 695.914 119.054C697.808 115.395 700.389 112.635 703.656 110.773C706.955 108.911 710.712 107.98 714.926 107.98C719.107 107.98 722.831 108.911 726.098 110.773C729.397 112.635 731.978 115.395 733.84 119.054C735.734 122.68 736.682 127.188 736.682 132.578C736.682 137.935 735.734 142.443 733.84 146.102C731.978 149.761 729.397 152.521 726.098 154.383C722.831 156.245 719.107 157.176 714.926 157.176ZM714.73 150.512C717.768 150.512 720.348 149.793 722.472 148.356C724.595 146.886 726.196 144.812 727.274 142.133C728.384 139.454 728.94 136.269 728.94 132.578C728.94 126.992 727.78 122.598 725.461 119.397C723.141 116.163 719.695 114.546 715.122 114.546C712.051 114.546 709.454 115.281 707.331 116.751C705.24 118.188 703.639 120.263 702.529 122.974C701.451 125.653 700.912 128.854 700.912 132.578C700.912 138.099 702.071 142.476 704.391 145.71C706.743 148.911 710.189 150.512 714.73 150.512ZM817.421 156V128.462C817.421 123.987 816.343 120.589 814.187 118.27C812.064 115.918 809.189 114.742 805.563 114.742C801.317 114.742 798.066 116.392 795.812 119.691C793.558 122.958 792.431 127.482 792.431 133.264H788.903C788.903 129.05 789.312 125.359 790.128 122.19C790.978 119.021 792.203 116.392 793.803 114.301C795.404 112.178 797.348 110.593 799.634 109.548C801.921 108.503 804.518 107.98 807.425 107.98C811.117 107.98 814.269 108.813 816.882 110.479C819.528 112.112 821.554 114.464 822.958 117.535C824.363 120.606 825.065 124.248 825.065 128.462V156H817.421ZM751.565 156V109.156H758.131L759.013 118.564C760.483 115.167 762.541 112.553 765.187 110.724C767.866 108.895 771.067 107.98 774.791 107.98C778.483 107.98 781.635 108.813 784.248 110.479C786.894 112.112 788.92 114.464 790.324 117.535C791.729 120.606 792.431 124.248 792.431 128.462V156H784.885V128.462C784.885 123.987 783.807 120.589 781.651 118.27C779.528 115.918 776.621 114.742 772.929 114.742C770.12 114.742 767.686 115.51 765.628 117.045C763.57 118.58 761.986 120.785 760.875 123.66C759.765 126.502 759.209 129.899 759.209 133.852V156H751.565ZM859.517 157.176C855.466 157.176 851.84 156.147 848.639 154.089C845.47 151.998 842.955 149.107 841.093 145.416C839.264 141.725 838.349 137.478 838.349 132.676C838.349 127.547 839.264 123.137 841.093 119.446C842.922 115.755 845.421 112.929 848.59 110.969C851.791 108.976 855.434 107.98 859.517 107.98C863.078 107.98 866.116 108.699 868.631 110.136C871.146 111.573 873.172 113.517 874.707 115.967C876.242 118.417 877.304 121.194 877.892 124.297C878.513 127.368 878.692 130.553 878.431 133.852H844.523V129.148H873.384L871.13 130.618C871.228 128.691 871.114 126.763 870.787 124.836C870.493 122.909 869.921 121.145 869.072 119.544C868.223 117.911 867.03 116.604 865.495 115.624C863.96 114.644 862 114.154 859.615 114.154C856.61 114.154 854.094 114.922 852.069 116.457C850.044 117.992 848.525 120.018 847.512 122.533C846.499 125.016 845.993 127.711 845.993 130.618V133.754C845.993 137.021 846.483 139.944 847.463 142.525C848.476 145.106 849.978 147.147 851.971 148.65C853.964 150.153 856.479 150.904 859.517 150.904C862.555 150.904 865.054 150.169 867.014 148.699C868.974 147.229 870.166 145.057 870.591 142.182H878.529C878.039 145.285 876.928 147.964 875.197 150.218C873.466 152.439 871.261 154.154 868.582 155.363C865.903 156.572 862.882 157.176 859.517 157.176ZM926.909 156V128.462C926.909 123.987 925.831 120.589 923.675 118.27C921.552 115.918 918.644 114.742 914.953 114.742C912.144 114.742 909.71 115.51 907.652 117.045C905.594 118.58 904.01 120.785 902.899 123.66C901.788 126.502 901.233 129.899 901.233 133.852H898.293C898.293 128.397 899.012 123.742 900.449 119.887C901.886 116.032 903.977 113.092 906.721 111.067C909.498 109.009 912.862 107.98 916.815 107.98C920.506 107.98 923.659 108.813 926.272 110.479C928.918 112.112 930.943 114.464 932.348 117.535C933.753 120.606 934.455 124.248 934.455 128.462V156H926.909ZM893.589 156V109.156H900.155L901.233 119.936V156H893.589Z" fill="#F5F5F5"/>
<defs>
<clipPath id="clip0_20_1133">
<rect width="193.282" height="226" fill="white"/>
</clipPath>
</defs>
</svg>
