<svg width="207" height="226" viewBox="0 0 207 226" fill="none" xmlns="http://www.w3.org/2000/svg">
<g clip-path="url(#clip0_16_512)">
<path d="M125.084 3.13609C121.957 4.90864 118.014 8.86279 115.702 12.8169C112.167 18.4073 111.624 20.7252 111.624 28.4972C111.76 34.7693 112.847 39.9506 115.159 45.6773C118.286 53.5856 135.145 81.81 136.64 81.81C137.728 81.81 144.118 71.1747 151.324 56.9943C161.521 37.0872 163.832 18.5436 157.442 9.68089C155.947 7.77199 152.276 5.31769 149.285 4.22688C144.39 2.45434 143.438 2.59069 138.544 4.90864C131.066 8.59009 127.123 15.1349 127.123 23.7249C127.123 35.5874 133.649 42.6776 142.487 40.3596C151.732 38.0417 150.372 18.8163 140.991 19.2254C137.728 19.4981 137.728 19.4981 140.447 20.0435C142.079 20.3162 144.526 22.2251 145.75 23.9976C148.741 28.7699 146.158 37.769 141.535 38.9961C131.066 41.5868 124.404 24.2703 131.61 13.4987C139.767 1.09084 154.723 2.86339 158.53 16.6347C161.793 29.1789 155.403 48.8133 139.632 74.1744L136.368 79.3557L127.667 65.3117C116.79 47.7225 113.527 39.1325 113.527 28.4972C113.527 15.953 118.15 8.31738 129.299 2.72704C132.154 1.36354 133.649 0.136391 132.562 0.136391C131.474 3.8147e-05 128.075 1.36354 125.084 3.13609Z" fill="#753B57"/>
<path d="M81.5763 19.9072C76.4098 20.998 65.9409 24.9521 58.463 28.6335C45.4108 35.042 27.8719 47.5862 27.8719 50.7222C27.8719 51.5403 31.135 49.3587 35.0778 46.0863C45.5468 37.0872 54.3842 31.4969 63.3576 27.8154C67.7084 26.0429 71.6512 24.543 72.0591 24.543C72.467 24.543 72.7389 26.3156 72.7389 28.3608C72.7389 30.8151 71.2433 33.5421 68.6601 36.1328C63.7655 40.7687 60.5024 47.4498 60.5024 52.7675C60.5024 54.9491 61.998 61.3575 63.9015 66.8115C65.8049 72.2655 67.3005 79.6284 67.3005 83.1735C67.3005 91.0818 64.1734 94.2178 53.7044 97.3539C44.731 99.9445 42.0118 101.717 29.0955 113.034C20.9379 120.261 19.1704 121.215 18.0827 119.443C16.7231 116.852 18.3547 109.762 22.9773 99.2628C27.8719 88.0821 28.2798 83.5826 25.0167 80.3102C22.8414 78.1286 21.2098 77.7195 17.9468 78.4013C7.61377 80.4465 3.39899 88.2185 0.679778 109.898C-2.03943 131.169 3.26303 156.53 14.4118 175.482C21.8896 188.163 41.468 206.979 54.3842 213.66C104.418 239.567 165.056 222.796 192.928 175.21C201.901 159.666 205.98 145.894 206.932 127.487C208.564 95.854 199.182 71.0384 177.157 48.5406C171.446 42.5412 166.28 37.9053 166.008 38.3144C165.6 38.7234 170.359 44.1774 176.477 50.4495C188.849 63.4028 196.735 76.6287 202.037 94.0815C205.844 106.489 206.388 130.487 203.397 144.531C201.494 153.121 201.086 153.803 187.218 167.438L172.942 181.482L173.758 188.845L174.437 196.208L165.464 203.161C147.381 217.069 126.987 224.023 104.01 224.023C82.9359 223.887 66.0768 219.114 49.3537 208.343C34.8059 199.071 33.4463 197.298 34.262 188.981C35.0778 181.073 33.1744 176.028 27.3281 170.574C22.8414 166.347 22.9773 162.802 27.8719 156.257C30.1832 153.257 31.9507 149.576 31.9507 147.94C31.9507 140.168 22.1616 135.396 9.2453 136.895L2.03938 137.713V122.988C2.03938 104.308 5.71032 88.0821 11.0128 83.4462C13.596 81.1283 15.9074 80.4465 19.5783 80.7192C23.929 81.1283 24.4729 81.5373 24.8808 85.3551C25.1527 88.0821 23.6571 93.2634 21.0739 98.9901C16.4512 109.216 14.8197 118.215 16.8591 121.215C18.7625 124.215 23.2492 121.761 33.4463 112.08C42.8276 103.353 47.5862 100.49 55.064 98.8538C63.6295 97.0812 67.1645 94.4906 68.6601 88.7639C70.2916 82.7645 68.932 74.0381 64.5813 62.9937C63.0857 59.0396 61.862 54.6764 61.862 53.0402C61.862 49.4951 66.8926 39.5415 69.3399 38.7234C72.0591 37.6326 75.73 29.0426 74.7783 26.0429C74.0985 23.7249 75.0502 23.1796 81.4404 21.816C85.3832 20.998 92.5891 19.7708 97.3478 19.2254L106.049 18.1346L98.5714 17.9982C94.4926 17.9982 86.8788 18.8163 81.5763 19.9072ZM21.2098 139.213C26.1044 140.85 30.5911 145.076 30.5911 147.94C30.5911 148.894 28.8236 151.894 26.5123 154.757C21.3458 161.302 21.0739 167.301 25.9684 171.937C30.5911 176.164 33.3103 181.618 33.3103 186.39C33.3103 192.935 31.5428 194.026 27.6 189.936C17.4029 178.891 6.66204 158.166 4.07879 144.258C3.26303 139.759 3.39899 139.213 6.39012 138.668C12.2364 137.577 16.5872 137.713 21.2098 139.213ZM194.696 168.665C190.073 177.8 178.788 192.526 176.885 191.844C176.069 191.572 175.253 189.117 174.981 186.527C174.573 182.164 175.253 181.073 181.099 176.301C184.634 173.437 189.665 168.801 192.248 166.074C194.832 163.211 197.279 161.166 197.551 161.438C197.823 161.711 196.463 164.983 194.696 168.665Z" fill="#753B57"/>
<path d="M108.904 198.935C100.339 206.979 98.0276 208.479 92.4532 209.297C86.335 210.252 77.9054 215.569 79.6729 217.478C80.2168 217.887 82.1202 216.796 83.8877 215.024C85.9271 212.979 89.598 211.342 93.8128 210.797C99.3872 209.843 101.699 208.479 110.264 200.298C118.558 192.526 121.005 190.89 124.812 190.89C129.842 190.89 132.834 193.481 135.281 199.616C136.64 203.298 137.048 203.434 143.302 202.889C146.973 202.48 150.916 202.752 152.14 203.434C153.5 204.252 154.315 204.116 154.315 203.298C154.315 201.389 149.693 200.434 142.759 200.843C138.408 201.116 137.32 200.571 136.912 198.389C135.825 192.935 131.202 189.526 124.812 189.526C119.237 189.526 118.014 190.208 108.904 198.935Z" fill="#753B57"/>
<path d="M47.9261 83.8552C52.589 85.5462 57.487 87.0444 60.4401 91.4557C63.4097 95.8917 64.0549 101.669 64.9545 106.826C65.5733 110.373 66.0906 113.927 66.5874 117.494C67.0968 121.153 67.2221 125.553 68.8651 128.923C71.8542 135.055 76.9781 122.321 77.592 120.675C79.3714 115.905 80.1285 110.926 81.5438 106.066C82.1702 103.915 83.0554 101.544 85.084 100.421C88.1486 98.7249 90.7944 100.981 91.6703 103.954C92.617 107.167 93.4892 110.41 94.1676 113.694C95.332 119.332 95.9467 125.197 98.1606 130.542C98.3434 130.983 98.9468 133.176 100.123 132.921C101.836 132.549 103.858 129.253 104.404 128.388C106.576 124.946 107.67 122.461 108.891 118.564C109.952 115.176 110.202 111.606 111.292 108.233C112.528 104.41 114.664 100.584 117.755 98.0287C118.224 97.6408 118.696 97.2828 119.305 97.2828" stroke="#753B57" stroke-width="2" stroke-linecap="round"/>
<path d="M108.089 123.671C113.113 123.986 115.202 129.46 116.855 133.5C118.479 137.467 119.735 141.571 121.345 145.544C122.08 147.359 122.683 148.787 123.611 150.501C124.537 152.213 126.286 155.823 128.171 156.708C131.404 158.225 134.287 143.247 134.686 141.851C135.667 138.42 136.311 133.085 139.161 130.446C140.695 129.027 141.244 130.427 142.022 131.852C143.631 134.801 144.764 137.853 144.996 141.226C145.416 147.322 145.105 153.626 150.265 158.071C155.093 162.231 156.52 145.233 156.751 143.485C157.871 135.033 158.752 124.562 167.94 120.888C170.549 119.844 172.17 122.844 174.369 123.671" stroke="#753B57" stroke-width="2" stroke-linecap="round"/>
<path d="M196.421 160.169C197.521 157.199 198.629 154.317 198.807 151.114C198.981 147.988 197.887 145.897 196.045 143.501C192.5 138.891 188.431 134.795 183.929 131.123C182.544 129.993 180.863 129.119 180.013 127.466C178.91 125.32 178.476 122.644 178.831 120.265C179.32 116.976 181.604 113.832 184.354 112.063C185.554 111.29 186.841 110.616 188.107 109.961C188.672 109.668 189.405 109.458 189.92 109.073C192.887 106.856 193.19 102.43 194.027 99.152C194.666 96.6497 195.388 94.1122 196.52 91.7806C197.037 90.7155 197.701 90.0805 198.46 89.224" stroke="#753B57" stroke-width="2" stroke-linecap="round"/>
</g>
<defs>
<clipPath id="clip0_16_512">
<rect width="207" height="226" fill="white"/>
</clipPath>
</defs>
</svg>
